<?xml version="1.0" encoding="UTF-8"?>
<svg id="Layer_1" data-name="Layer 1" xmlns="http://www.w3.org/2000/svg" xmlns:xlink="http://www.w3.org/1999/xlink" version="1.1" viewBox="0 0 512 512">
  <defs>
    <style>
      .cls-1 {
        fill: none;
      }

      .cls-1, .cls-2, .cls-3, .cls-4, .cls-5, .cls-6 {
        stroke-width: 0px;
      }

      .cls-2 {
        fill: url(#linear-gradient-4);
      }

      .cls-2, .cls-3, .cls-4 {
        display: none;
      }

      .cls-3 {
        fill: url(#linear-gradient-3);
      }

      .cls-4 {
        fill: url(#linear-gradient);
      }

      .cls-5 {
        fill: url(#linear-gradient-2);
      }

      .cls-6 {
        fill: url(#linear-gradient-5);
      }
    </style>
    <linearGradient id="linear-gradient" x1="48.6" y1="344" x2="186.3" y2="581.8" gradientTransform="translate(5.9 1280.6) scale(2.2 -2.2)" gradientUnits="userSpaceOnUse">
      <stop offset="0" stop-color="#dc180d"/>
      <stop offset=".5" stop-color="#f96e20"/>
      <stop offset="1" stop-color="#f4ce41"/>
    </linearGradient>
    <linearGradient id="linear-gradient-2" x1="19.2" y1="400" x2="134.7" y2="479.7" gradientTransform="translate(41.8 1362.1) scale(2.5 -2.5)" gradientUnits="userSpaceOnUse">
      <stop offset="0" stop-color="#21facf"/>
      <stop offset="1" stop-color="#0970ef"/>
    </linearGradient>
    <linearGradient id="linear-gradient-3" x1="43" y1="357.6" x2="141.4" y2="546" gradientTransform="translate(41.3 1364.1) scale(2.5 -2.5)" gradientUnits="userSpaceOnUse">
      <stop offset="0" stop-color="#4f00da"/>
      <stop offset="1" stop-color="#e5311b"/>
    </linearGradient>
    <linearGradient id="linear-gradient-4" x1="29.9" y1="375.7" x2="160" y2="526.1" gradientTransform="translate(41.3 1364.1) scale(2.5 -2.5)" gradientUnits="userSpaceOnUse">
      <stop offset="0" stop-color="#21facf"/>
      <stop offset="1" stop-color="#0970ef"/>
    </linearGradient>
    <linearGradient id="linear-gradient-5" x1="29.9" y1="375.7" x2="160" y2="526.1" gradientTransform="translate(41.3 1364.1) scale(2.5 -2.5)" gradientUnits="userSpaceOnUse">
      <stop offset="0" stop-color="#72004e"/>
      <stop offset="1" stop-color="#0015b1"/>
    </linearGradient>
  </defs>
  <rect class="cls-1" x="0" y="0" width="512" height="512" rx="256" ry="256"/>
  <g>
    <path class="cls-4" d="M347.8,0c-19.1,23.2-49.3,106.1-51.2,121.7-.4,11.6,3.4,35.2,1.7,39.1-1.8,4-12.7-23.4-17.8-15.6-30.2,44.9-26.5,43.8-38.5,77.6-4.5,12.7-1,54.4-3.9,58.8-3.1,4.9-9.8-30.4-16.8-22.8-28.7,31-40.3,50.4-55.2,75.7-8.3,14-5.4,57.7-8.7,61-3.2,3.3-9.5-45.3-18.9-35.4-21.1,22.4-34.8,33.2-46.9,47.6-12.9,15.3-1.9,43.5-12.5,87.5l.4.5c191.5-124.4,251.1-314.5,266.1-448.1-1.7,158.1-72.7,353.1-260.5,456.6l.3.4c50.1-5.4,55.2,25.9,110.2-10.6C333.4,374.7,397.9,186.7,347.8,0h0Z"/>
    <path class="cls-5" d="M347.8,0c-19.1,23.2-49.3,106.1-51.2,121.7-.4,11.6,3.4,35.2,1.7,39.1-1.8,4-12.7-23.4-17.8-15.6-30.2,44.9-26.5,43.8-38.5,77.6-4.5,12.7-1,54.4-3.9,58.8-3.1,4.9-9.8-30.4-16.8-22.8-28.7,31-40.3,50.4-55.2,75.7-8.3,14-5.4,57.7-8.7,61-3.2,3.3-9.5-45.3-18.9-35.4-21.1,22.4-34.8,33.2-46.9,47.6-12.9,15.3-1.9,43.5-12.5,87.5l.4.5c191.5-124.4,251.1-314.5,266.1-448.1-1.7,158.1-72.7,353.1-260.5,456.6l.3.4c50.1-5.4,55.2,25.9,110.2-10.6C333.4,374.7,397.9,186.7,347.8,0h0Z"/>
    <g>
      <path class="cls-3" d="M256,55.5c-119.7,0-216.7,97-216.7,216.7,0,50.6,17.8,99.5,50.1,138.4.6-1,1.3-2,2.1-3,12.1-14.4,25.8-25.3,46.9-47.6,9.4-9.9,15.7,38.7,18.9,35.4,3.3-3.3.4-47,8.7-61,15-25.3,26.5-44.7,55.2-75.7,7-7.6,13.7,27.8,16.8,22.8,2.8-4.4-.7-46.1,3.9-58.8,12.1-33.7,8.3-32.7,38.5-77.6,5.2-7.7,16.1,19.6,17.8,15.6,1.7-3.9-2.1-27.5-1.7-39.1.9-7.8,8.9-32.3,19.1-57.8-19.4-5.6-39.5-8.4-59.6-8.4h0ZM362.7,83.6c13.8,152.3-45.6,298.5-155.3,399.8,15.9,3.7,32.2,5.5,48.6,5.5,119.7,0,216.7-97,216.7-216.7,0-78.1-42-150.2-110-188.6h0Z"/>
      <path class="cls-2" d="M256,55.5c-119.7,0-216.7,97-216.7,216.7,0,50.6,17.8,99.5,50.1,138.4.6-1,1.3-2,2.1-3,12.1-14.4,25.8-25.3,46.9-47.6,9.4-9.9,15.7,38.7,18.9,35.4,3.3-3.3.4-47,8.7-61,15-25.3,26.5-44.7,55.2-75.7,7-7.6,13.7,27.8,16.8,22.8,2.8-4.4-.7-46.1,3.9-58.8,12.1-33.7,8.3-32.7,38.5-77.6,5.2-7.7,16.1,19.6,17.8,15.6,1.7-3.9-2.1-27.5-1.7-39.1.9-7.8,8.9-32.3,19.1-57.8-19.4-5.6-39.5-8.4-59.6-8.4h0ZM362.7,83.6c13.8,152.3-45.6,298.5-155.3,399.8,15.9,3.7,32.2,5.5,48.6,5.5,119.7,0,216.7-97,216.7-216.7,0-78.1-42-150.2-110-188.6h0Z"/>
      <path class="cls-6" d="M256,55.5c-119.7,0-216.7,97-216.7,216.7,0,50.6,17.8,99.5,50.1,138.4.6-1,1.3-2,2.1-3,12.1-14.4,25.8-25.3,46.9-47.6,9.4-9.9,15.7,38.7,18.9,35.4,3.3-3.3.4-47,8.7-61,15-25.3,26.5-44.7,55.2-75.7,7-7.6,13.7,27.8,16.8,22.8,2.8-4.4-.7-46.1,3.9-58.8,12.1-33.7,8.3-32.7,38.5-77.6,5.2-7.7,16.1,19.6,17.8,15.6,1.7-3.9-2.1-27.5-1.7-39.1.9-7.8,8.9-32.3,19.1-57.8-19.4-5.6-39.5-8.4-59.6-8.4h0ZM362.7,83.6c13.8,152.3-45.6,298.5-155.3,399.8,15.9,3.7,32.2,5.5,48.6,5.5,119.7,0,216.7-97,216.7-216.7,0-78.1-42-150.2-110-188.6h0Z"/>
    </g>
  </g>
</svg>